<svg xmlns:dc="http://purl.org/dc/elements/1.1/" xmlns:cc="http://creativecommons.org/ns#" xmlns:rdf="http://www.w3.org/1999/02/22-rdf-syntax-ns#" xmlns:svg="http://www.w3.org/2000/svg" xmlns="http://www.w3.org/2000/svg" xmlns:sodipodi="http://sodipodi.sourceforge.net/DTD/sodipodi-0.dtd" xmlns:inkscape="http://www.inkscape.org/namespaces/inkscape" viewBox="0 0 100 125" version="1.1" x="0px" y="0px"><defs><clipPath clipPathUnits="userSpaceOnUse" id="a"><rect style="opacity:1;fill:#ffff8d;fill-opacity:1;stroke:none;stroke-opacity:1" width="80.629921" height="28.976377" x="11.023623" y="1000.9764" ry="2.48"/></clipPath></defs><g transform="translate(0,-952.36216)"><g><path style="opacity:1;fill:#000000;fill-opacity:1;stroke:none;stroke-opacity:1" d="M 50,981.8104 A 20.551182,20.551182 0 0 0 29.449219,1002.3612 20.551182,20.551182 0 0 0 50,1022.9139 20.551182,20.551182 0 0 0 70.550781,1002.3612 20.551182,20.551182 0 0 0 50,981.8104 Z m 0,5.35547 A 15.196851,15.196851 0 0 1 65.197266,1002.3612 15.196851,15.196851 0 0 1 50,1017.5584 15.196851,15.196851 0 0 1 34.802734,1002.3612 15.196851,15.196851 0 0 1 50,987.16587 Z" clip-path="url(#a)" transform="matrix(0.96973655,0,0,-0.96973655,1.5131723,1998.8417)"/><path transform="matrix(1.5344983,0,0,-1.5344983,-26.724917,2564.5312)" clip-path="url(#a)" d="M 50,981.8104 A 20.551182,20.551182 0 0 0 29.449219,1002.3612 20.551182,20.551182 0 0 0 50,1022.9139 20.551182,20.551182 0 0 0 70.550781,1002.3612 20.551182,20.551182 0 0 0 50,981.8104 Z m 0,5.35547 A 15.196851,15.196851 0 0 1 65.197266,1002.3612 15.196851,15.196851 0 0 1 50,1017.5584 15.196851,15.196851 0 0 1 34.802734,1002.3612 15.196851,15.196851 0 0 1 50,987.16587 Z" style="opacity:1;fill:#000000;fill-opacity:1;stroke:none;stroke-opacity:1"/><path style="opacity:1;fill:#000000;fill-opacity:1;stroke:none;stroke-opacity:1" d="M 50,981.8104 A 20.551182,20.551182 0 0 0 29.449219,1002.3612 20.551182,20.551182 0 0 0 50,1022.9139 20.551182,20.551182 0 0 0 70.550781,1002.3612 20.551182,20.551182 0 0 0 50,981.8104 Z m 0,5.35547 A 15.196851,15.196851 0 0 1 65.197266,1002.3612 15.196851,15.196851 0 0 1 50,1017.5584 15.196851,15.196851 0 0 1 34.802734,1002.3612 15.196851,15.196851 0 0 1 50,987.16587 Z" clip-path="url(#a)" transform="matrix(2.3002451,0,0,-2.3002451,-65.012256,3331.6671)"/></g></g></svg>